<svg width="395" height="496" viewBox="0 0 395 496" fill="none" xmlns="http://www.w3.org/2000/svg">
<path d="M115.195 493.602L115.118 495H113.618C84.2001 495 69.9518 477.5 66.1185 472.5C83.3185 474.1 84.9518 471.833 83.6185 470.5C29.6185 449.7 6.11847 414.5 1.11847 399.5C15.5185 404.3 28.4518 404.833 33.1185 404.5C13.1185 381.7 4.78514 347 3.11848 332.5C-1.68152 288.1 2.78515 252.333 5.61848 240C10.0185 270 22.4518 285.5 28.1185 289.5C21.3185 275.5 27.6185 228.333 31.6185 206.5C48.4185 156.5 65.9518 142.667 72.6185 142C68.6185 181.2 72.9518 198.667 75.6185 202.5C88.0185 144.9 148.118 87.5 176.618 66C165.818 92.4 158.452 118.667 156.118 128.5C182.919 109.7 206.285 80.6667 214.618 68.5C223.419 39.7 226.952 12.1667 227.618 2C263.618 50.4 278.285 129.167 281.118 162.5C295.918 143.7 300.618 120.333 301.118 111C315.118 121.8 330.618 177.833 336.618 204.5C339.018 221.7 332.285 240.333 328.618 247.5C346.618 241.9 368.118 209.167 376.618 193.5C387.018 223.5 383.952 266.333 381.118 284C377.918 300 360.785 322 352.618 331C354.218 334.2 380.952 318.667 394.118 310.5C394.118 329.7 366.452 369.167 352.618 386.5C359.018 392.1 382.952 377.5 394.118 369.5C396.518 381.5 344.333 434.833 316.5 459L320 458C323.5 458 326.5 452.5 322.118 460C318.369 466.418 285.618 484.5 282.618 483C280.218 481.8 281.618 478.833 282.618 477.5L285.618 474.5C299.618 467.7 316.785 445.667 323.618 435.5C328.018 417.5 325.452 407.333 323.618 404.5C323.218 398.1 319.785 396.833 318.118 397C314.118 393.4 305.452 407.833 301.618 415.5C301.618 409.1 293.952 391.5 290.118 383.5C291.952 383.167 296.118 382.7 298.118 383.5C300.118 384.3 301.285 381.167 301.618 379.5L302.618 337.5C294.618 308.3 281.952 300 276.618 299.5H266.118C242.518 315.5 212.952 381.5 201.118 412.5L166.618 354.5C151.818 324.9 136.118 310.5 130.118 307C104.918 291 90.6185 313.667 86.6185 327C79.8185 347 85.7851 369.333 89.6185 378L103.118 399.5L92.3635 419.607C92.0174 420.254 91.1056 420.309 90.6613 419.724C75.259 399.465 66.5682 401.07 64.1185 404.5C55.5511 434.3 89.4315 468.579 110.956 484.728C113.744 486.82 115.384 490.123 115.195 493.602Z" fill="black" stroke="black"/>
</svg>
